<?xml version="1.0" encoding="utf-8"?>
<!-- Generator: Adobe Illustrator 16.0.4, SVG Export Plug-In . SVG Version: 6.00 Build 0)  -->
<!DOCTYPE svg PUBLIC "-//W3C//DTD SVG 1.1//EN" "http://www.w3.org/Graphics/SVG/1.1/DTD/svg11.dtd">
<svg version="1.1" xmlns="http://www.w3.org/2000/svg" xmlns:xlink="http://www.w3.org/1999/xlink" x="0px" y="0px" width="32px"
	 height="32px" viewBox="0 0 32 32" enable-background="new 0 0 32 32" xml:space="preserve">
<g id="Layer_2">
	<path fill="#0BABD6" d="M32,19.792c0,6.627-5.896,12-13.166,12h-5.668C5.895,31.792,0,26.419,0,19.792v-7.583
		c0-6.627,5.895-12,13.166-12h5.668c7.271,0,13.166,5.373,13.166,12V19.792z"/>
</g>
<g id="Layer_1">
	<path d="M23.186,12.415c-1.293,0-2.365,2.826-2.572,6.531h-9.221c-0.208-3.705-1.279-6.531-2.574-6.531H7.539
		c1.271,1.349,1.932,4.604,1.932,7.836c0,3.23-0.661,6.486-1.932,7.836h1.279c1.294,0,2.366-2.826,2.573-6.529h9.222
		c0.207,3.703,1.279,6.529,2.572,6.529c1.441,0,2.611-3.509,2.611-7.836C25.797,15.923,24.627,12.415,23.186,12.415z M28.408,13.721
		h-1.17c-0.412-0.824-0.908-1.306-1.441-1.306h-1.279c1.271,1.349,1.934,4.604,1.934,7.836c0,3.23-0.662,6.486-1.934,7.836h1.279
		c0.533,0,1.029-0.482,1.441-1.307h1.17c1.201,0,2.176-2.924,2.176-6.529S29.609,13.721,28.408,13.721z M3.594,13.721
		c-1.201,0-2.176,2.924-2.176,6.53s0.975,6.529,2.176,6.529c1.203,0,2.177-2.924,2.177-6.529S4.796,13.721,3.594,13.721z
		 M3.594,21.558c-0.361,0-0.653-0.584-0.653-1.307c0-0.721,0.292-1.307,0.653-1.307c0.361,0,0.653,0.586,0.653,1.307
		C4.247,20.974,3.955,21.558,3.594,21.558z M6.206,12.415c-0.517,0-0.998,0.459-1.402,1.238c1.104,1.179,1.62,3.962,1.62,6.598
		c0,2.637-0.515,5.419-1.62,6.598c0.404,0.778,0.885,1.238,1.402,1.238c1.442,0,2.612-3.509,2.612-7.836
		C8.818,15.923,7.648,12.415,6.206,12.415z"/>
	<rect x="2" y="6.041" fill="none" width="29.083" height="11.583"/>
	
		<text transform="matrix(1 0 0 1 1.9995 11.5571)" fill="#FFFFFF" stroke="#FFFFFF" stroke-width="0.5" stroke-miterlimit="10" font-family="'Sathu'" font-size="7">Hercubit</text>
</g>
</svg>
